<svg width="34" height="18" viewBox="0 0 34 18" fill="none" xmlns="http://www.w3.org/2000/svg">
    <path fill-rule="evenodd" clip-rule="evenodd" d="M5.43864 3.05357H4.87425C4.69467 3.05357 4.54075 3.08572 4.43813 3.18215C4.33552 3.24643 4.25856 3.37502 4.20725 3.47143C4.15595 3.59999 4.13029 3.72854 4.10464 3.85717C4.07898 4.01786 4.07898 4.14642 4.07898 4.24283V7.13575C4.07898 7.48927 4.02768 7.7786 3.89941 8.00357C3.77114 8.22861 3.61721 8.42144 3.41198 8.55C3.2324 8.67855 3.00151 8.77504 2.79628 8.83932C2.5654 8.9036 2.36016 8.93574 2.18058 8.93574V8.96787C2.33997 8.96787 2.51955 8.99315 2.71934 9.02133L2.79628 9.03215C3.02717 9.06429 3.2324 9.1607 3.41198 9.28934C3.59156 9.41789 3.77114 9.61072 3.89941 9.86791C4.02768 10.125 4.07898 10.4786 4.07898 10.8964V13.6286C4.07898 13.7572 4.07898 13.8857 4.10464 14.0143C4.13029 14.175 4.15595 14.3036 4.23291 14.4C4.28421 14.5286 4.38682 14.625 4.51509 14.6893C4.64336 14.7536 4.79729 14.8179 5.02817 14.8179H5.46429V18H3.64286C3.38632 18 3.12978 17.9357 2.87324 17.8393C2.6167 17.7429 2.36016 17.5822 2.12928 17.3893C1.89839 17.1965 1.71881 16.9071 1.56489 16.5858C1.41097 16.2643 1.35966 15.8786 1.35966 15.4286V11.8286C1.35966 11.5393 1.30836 11.3143 1.20574 11.1536C1.10312 10.9929 0.974853 10.8643 0.820929 10.7679C0.667003 10.6714 0.513079 10.6072 0.359156 10.575C0.205231 10.5429 0.0769619 10.5429 0 10.5429V7.48927H7.50832e-06C0.102621 7.48927 0.205236 7.48927 0.359156 7.45714C0.513079 7.425 0.667003 7.39286 0.795273 7.29644C0.949199 7.20003 1.05182 7.10362 1.18009 6.94284C1.30836 6.78215 1.33401 6.58932 1.33401 6.33214V2.57144C1.33401 2.12143 1.41097 1.73571 1.53923 1.41429C1.69316 1.09286 1.87274 0.835714 2.10362 0.610715C2.33451 0.417861 2.5654 0.257146 2.84759 0.160715C3.10413 0.0642844 3.36067 0 3.61721 0H5.43864V3.05357ZM27.6686 3.05357H28.2329C28.4125 3.05357 28.5664 3.08572 28.669 3.18215C28.7717 3.24643 28.8486 3.37502 28.8999 3.47143C28.9513 3.59999 28.9769 3.72854 29.0025 3.85717C29.0282 4.01786 29.0282 4.14642 29.0282 4.24283V7.13575C29.0282 7.48927 29.0795 7.7786 29.2078 8.00357C29.336 8.22861 29.4899 8.42144 29.6952 8.55C29.8748 8.67855 30.1057 8.77504 30.3109 8.83932C30.5418 8.9036 30.747 8.93574 30.9266 8.93574V8.96787C30.7672 8.96787 30.5877 8.99315 30.3879 9.02133L30.3109 9.03215C30.0801 9.06429 29.8748 9.1607 29.6952 9.28934C29.5156 9.41789 29.336 9.61072 29.2078 9.86791C29.0795 10.125 29.0282 10.4786 29.0282 10.8964V13.6286C29.0282 13.7572 29.0282 13.8857 29.0025 14.0143C28.9769 14.175 28.9513 14.3036 28.8743 14.4C28.823 14.5286 28.7203 14.625 28.5921 14.6893C28.4638 14.7536 28.3099 14.8179 28.079 14.8179H27.6429V18H29.4643C29.7209 18 29.9774 17.9357 30.234 17.8393C30.4905 17.7429 30.747 17.5822 30.9779 17.3893C31.2088 17.1965 31.3884 16.9071 31.5423 16.5858C31.6963 16.2643 31.7475 15.8786 31.7475 15.4286V11.8286C31.7475 11.5393 31.7988 11.3143 31.9014 11.1536C32.0041 10.9929 32.1323 10.8643 32.2863 10.7679C32.4402 10.6714 32.5941 10.6072 32.748 10.575C32.9019 10.5429 33.0302 10.5429 33.1072 10.5429V7.48927C33.0046 7.48927 32.9019 7.48927 32.748 7.45714C32.5941 7.425 32.4402 7.39286 32.3119 7.29644C32.158 7.20003 32.0554 7.10362 31.9271 6.94284C31.7988 6.78215 31.7732 6.58932 31.7732 6.33214V2.57144C31.7732 2.12143 31.6963 1.73571 31.5679 1.41429C31.414 1.09286 31.2345 0.835714 31.0036 0.610715C30.7726 0.417861 30.5418 0.257146 30.2596 0.160715C30.003 0.0642844 29.7465 0 29.4899 0H27.6686V3.05357ZM21.9937 11.3658L11.3811 0.642853H8.8573V3.19293L19.4699 13.9159L17.5792 15.8261L18.8367 17.0967L21.0126 14.871L23.8843 17.7275C24.2321 18.0789 24.794 18.0789 25.1418 17.7275L25.7749 17.0877C26.1227 16.7363 26.1227 16.1686 25.7749 15.8171L22.939 12.9517L25.1418 10.726L23.8843 9.45544L21.9937 11.3658ZM24.25 3.18392L20.0227 7.45504L17.4989 4.91402L21.7261 0.642853H24.25V3.18392ZM13.0845 9.37437L15.6083 11.9605L13.6374 13.9159L15.5281 15.8261L14.2706 17.0967L12.0946 14.871L9.22294 17.7364C8.87515 18.0879 8.3133 18.0879 7.96552 17.7364L7.33233 17.0967C6.98453 16.7452 6.98453 16.1776 7.33233 15.8261L10.1683 12.9517L7.96552 10.726L9.22294 9.45544L11.1136 11.3658L13.0845 9.37437Z" fill="currentColor"/>
</svg>
