<svg width="19" height="18" viewBox="0 0 19 18" fill="none" xmlns="http://www.w3.org/2000/svg">
<path d="M9.24581 7.73505e-07C4.13748 -0.00206487 0 4.13335 0 9.23755C0 13.2738 2.58825 16.7048 6.19279 17.9649C6.67822 18.0868 6.60386 17.7418 6.60386 17.5063V15.9054C3.80078 16.2339 3.68717 14.3789 3.4992 14.0691C3.11912 13.4205 2.22056 13.2552 2.4891 12.9454C3.12738 12.6169 3.77806 13.028 4.53202 14.1414C5.07735 14.949 6.14115 14.8127 6.68028 14.6784C6.79803 14.193 7.05003 13.7592 7.39706 13.4225C4.49277 12.902 3.2823 11.1297 3.2823 9.02272C3.2823 8.00023 3.619 7.06036 4.28001 6.30227C3.85862 5.05256 4.31926 3.98256 4.38123 3.8235C5.58136 3.71609 6.82901 4.68281 6.9261 4.75924C7.60776 4.5754 8.3865 4.47831 9.25821 4.47831C10.134 4.47831 10.9148 4.57953 11.6027 4.76544C11.8361 4.58779 12.9929 3.7574 14.1083 3.85862C14.1682 4.01767 14.6185 5.06289 14.2219 6.29608C14.8912 7.05623 15.232 8.00436 15.232 9.02892C15.232 11.14 14.0133 12.9144 11.1008 13.4267C11.3502 13.672 11.5483 13.9646 11.6834 14.2873C11.8186 14.6101 11.888 14.9565 11.8878 15.3064V17.6302C11.9043 17.8162 11.8878 18 12.1976 18C15.8559 16.7668 18.4896 13.311 18.4896 9.23961C18.4896 4.13335 14.35 7.73505e-07 9.24581 7.73505e-07Z" fill="black"/>
</svg>
