<svg width="24" height="18" viewBox="0 0 24 18" fill="none" xmlns="http://www.w3.org/2000/svg">
<path d="M23.9926 2.45878V16.3635C23.9926 17.2672 23.2609 17.999 22.3571 17.999H18.5393V8.72985L11.9963 13.6383L5.45332 8.72985V18H1.6355C1.42064 18 1.20788 17.9577 1.00939 17.8754C0.810896 17.7932 0.630556 17.6726 0.478673 17.5206C0.32679 17.3686 0.206341 17.1882 0.124208 16.9897C0.0420755 16.7911 -0.000131027 16.5784 3.05558e-07 16.3635V2.45878C3.05558e-07 0.436397 2.30829 -0.718248 3.92579 0.495379L5.45332 1.64203L11.9963 6.54852L18.5393 1.64003L20.0668 0.495379C21.6833 -0.717249 23.9926 0.436397 23.9926 2.45878Z" fill="black"/>
</svg>
