<svg width="18" height="18" viewBox="0 0 18 18" fill="none" xmlns="http://www.w3.org/2000/svg">
<path d="M15.75 0H2.25C1.65326 0 1.08097 0.237053 0.65901 0.65901C0.237053 1.08097 0 1.65326 0 2.25V15.75C0 16.3467 0.237053 16.919 0.65901 17.341C1.08097 17.7629 1.65326 18 2.25 18H15.75C16.3467 18 16.919 17.7629 17.341 17.341C17.7629 16.919 18 16.3467 18 15.75V2.25C18 1.65326 17.7629 1.08097 17.341 0.65901C16.919 0.237053 16.3467 0 15.75 0ZM7.83 13.635C7.83 13.9214 7.71622 14.1961 7.51368 14.3987C7.31114 14.6012 7.03643 14.715 6.75 14.715H3.42C3.13357 14.715 2.85886 14.6012 2.65632 14.3987C2.45379 14.1961 2.34 13.9214 2.34 13.635V3.42C2.34 2.823 2.823 2.34 3.42 2.34H6.75C7.346 2.34 7.83 2.823 7.83 3.42V13.635ZM15.66 9.135C15.66 9.42143 15.5462 9.69614 15.3437 9.89867C15.1411 10.1012 14.8664 10.215 14.58 10.215H11.25C10.9636 10.215 10.6889 10.1012 10.4863 9.89867C10.2838 9.69614 10.17 9.42143 10.17 9.135V3.42C10.17 2.823 10.654 2.34 11.25 2.34H14.58C15.177 2.34 15.66 2.823 15.66 3.42V9.135Z" fill="black"/>
</svg>
